<svg xmlns="http://www.w3.org/2000/svg" xmlns:xlink="http://www.w3.org/1999/xlink" viewBox="0 0 336.57 249.3"><defs><style>.cls-1{fill:url(#Degradado_sin_nombre_215);}.cls-2{fill:url(#Degradado_sin_nombre_215-2);}.cls-3{fill:url(#Degradado_sin_nombre_215-3);}.cls-4{fill:#c2c5d0;opacity:0.3;}.cls-5{fill:url(#Degradado_sin_nombre_215-4);}.cls-6{fill:url(#Degradado_sin_nombre_180);}.cls-7{fill:url(#Degradado_sin_nombre_158);}.cls-8{fill:url(#Degradado_sin_nombre_152);}.cls-9{fill:#fff;}.cls-10,.cls-15{opacity:0.4;}.cls-11,.cls-15{fill:#06033e;}.cls-12{fill:#222530;}.cls-13{fill:url(#Degradado_sin_nombre_185);}.cls-14{fill:url(#Áåçûìÿííûé_ãðàäèåíò_441);}.cls-16{fill:#00b;}.cls-17,.cls-20{fill:#020510;}.cls-17{opacity:0.5;}.cls-18{fill:url(#Degradado_sin_nombre_200);}.cls-19{opacity:0.9;}.cls-21{fill:#9295a0;}.cls-22{fill:#00da93;}.cls-23{fill:#1e41ee;}.cls-24{fill:#9ea3f8;}.cls-25{fill:#ee1e41;}.cls-26{fill:#424550;}.cls-27{fill:url(#Degradado_sin_nombre_215-5);}.cls-28{fill:url(#Degradado_sin_nombre_124);}.cls-29{fill:url(#Degradado_sin_nombre_104);}.cls-30{fill:url(#Degradado_sin_nombre_112);}.cls-31{fill:url(#Degradado_sin_nombre_211);}.cls-32{fill:url(#Degradado_sin_nombre_108);}.cls-33{fill:url(#Degradado_sin_nombre_97);}.cls-34{fill:url(#Degradado_sin_nombre_116);}.cls-35{fill:url(#Degradado_sin_nombre_203);}.cls-36{fill:url(#Degradado_sin_nombre_205);}</style><linearGradient id="Degradado_sin_nombre_215" x1="311.54" y1="206.76" x2="336.57" y2="206.76" gradientUnits="userSpaceOnUse"><stop offset="0" stop-color="#e8e9fe"/><stop offset="1" stop-color="#1e41ee"/></linearGradient><linearGradient id="Degradado_sin_nombre_215-2" x1="277.27" y1="172.46" x2="319.31" y2="172.46" xlink:href="#Degradado_sin_nombre_215"/><linearGradient id="Degradado_sin_nombre_215-3" x1="0" y1="186.54" x2="42.05" y2="186.54" xlink:href="#Degradado_sin_nombre_215"/><linearGradient id="Degradado_sin_nombre_215-4" x1="48.95" y1="183.85" x2="273.36" y2="183.85" xlink:href="#Degradado_sin_nombre_215"/><radialGradient id="Degradado_sin_nombre_180" cx="172.9" cy="17.7" r="171.4" gradientUnits="userSpaceOnUse"><stop offset="0" stop-color="#9295a0"/><stop offset="0.47" stop-color="#727580"/><stop offset="0.54" stop-color="#666974"/><stop offset="0.74" stop-color="#424550"/><stop offset="0.8" stop-color="#222530"/></radialGradient><radialGradient id="Degradado_sin_nombre_158" cx="68.07" cy="155.34" r="187.42" gradientUnits="userSpaceOnUse"><stop offset="0" stop-color="#c2c5d0"/><stop offset="0.47" stop-color="#9295a0"/><stop offset="0.68" stop-color="#9295a0"/><stop offset="0.73" stop-color="#727580"/></radialGradient><radialGradient id="Degradado_sin_nombre_152" cx="85.31" cy="117.73" fx="120.42100754103419" fy="63.55394319016145" r="168.07" gradientUnits="userSpaceOnUse"><stop offset="0.15" stop-color="#f2f5f8"/><stop offset="0.61" stop-color="#c2c5d0"/></radialGradient><radialGradient id="Degradado_sin_nombre_185" cx="127.18" cy="53.45" r="171.43" gradientUnits="userSpaceOnUse"><stop offset="0" stop-color="#9295a0"/><stop offset="0.47" stop-color="#727580"/><stop offset="0.53" stop-color="#666974"/><stop offset="0.73" stop-color="#424550"/><stop offset="1" stop-color="#222530"/></radialGradient><linearGradient id="Áåçûìÿííûé_ãðàäèåíò_441" x1="146.02" y1="98.45" x2="283.39" y2="98.45" gradientUnits="userSpaceOnUse"><stop offset="0" stop-color="#3919bb"/><stop offset="1" stop-color="#6507fa"/></linearGradient><radialGradient id="Degradado_sin_nombre_200" cx="64.6" cy="16.84" r="267" gradientUnits="userSpaceOnUse"><stop offset="0" stop-color="#e8e9fe"/><stop offset="0.47" stop-color="#9ea3f8"/><stop offset="0.73" stop-color="#1e41ee"/><stop offset="1" stop-color="#00b"/></radialGradient><linearGradient id="Degradado_sin_nombre_215-5" x1="52.37" y1="117.24" x2="111.3" y2="117.24" xlink:href="#Degradado_sin_nombre_215"/><radialGradient id="Degradado_sin_nombre_124" cx="10.32" cy="46.49" r="196.74" gradientUnits="userSpaceOnUse"><stop offset="0" stop-color="#9ea3f8"/><stop offset="0.15" stop-color="#727ff6"/><stop offset="0.41" stop-color="#001dcb"/><stop offset="0.93" stop-color="#1e41ee"/></radialGradient><linearGradient id="Degradado_sin_nombre_104" x1="41.79" y1="30.38" x2="137.3" y2="84.5" gradientUnits="userSpaceOnUse"><stop offset="0" stop-color="#c6c7fb"/><stop offset="0.25" stop-color="#1e41ee"/><stop offset="0.56" stop-color="#00b"/></linearGradient><linearGradient id="Degradado_sin_nombre_112" x1="64.11" y1="51.14" x2="101.09" y2="51.14" gradientUnits="userSpaceOnUse"><stop offset="0" stop-color="#00b"/><stop offset="1" stop-color="#c6c7fb"/></linearGradient><linearGradient id="Degradado_sin_nombre_211" x1="63.23" y1="51.14" x2="100.21" y2="51.14" gradientUnits="userSpaceOnUse"><stop offset="0" stop-color="#1e41ee"/><stop offset="1" stop-color="#9ea3f8"/></linearGradient><linearGradient id="Degradado_sin_nombre_108" x1="64.11" y1="46.26" x2="110.74" y2="46.26" gradientUnits="userSpaceOnUse"><stop offset="0" stop-color="#00b"/><stop offset="0.2" stop-color="#0202bc"/><stop offset="0.3" stop-color="#090ac0"/><stop offset="0.38" stop-color="#1518c6"/><stop offset="0.45" stop-color="#262bcf"/><stop offset="0.51" stop-color="#3c43da"/><stop offset="0.56" stop-color="#5761e8"/><stop offset="0.61" stop-color="#727ff6"/><stop offset="0.65" stop-color="#848ef7"/><stop offset="0.74" stop-color="#a1a7f9"/><stop offset="0.83" stop-color="#b5b9fa"/><stop offset="0.92" stop-color="#c2c3fb"/><stop offset="1" stop-color="#c6c7fb"/></linearGradient><radialGradient id="Degradado_sin_nombre_97" cx="38.76" cy="23.59" r="167.7" gradientUnits="userSpaceOnUse"><stop offset="0" stop-color="#e8e9fe"/><stop offset="0.25" stop-color="#1e41ee"/><stop offset="0.74" stop-color="#001dcb"/></radialGradient><linearGradient id="Degradado_sin_nombre_116" x1="79.67" y1="61.31" x2="86.12" y2="61.31" gradientUnits="userSpaceOnUse"><stop offset="0" stop-color="#00b"/><stop offset="0.2" stop-color="#0202bc"/><stop offset="0.3" stop-color="#090ac0"/><stop offset="0.38" stop-color="#1518c6"/><stop offset="0.45" stop-color="#262bcf"/><stop offset="0.51" stop-color="#3c43da"/><stop offset="0.56" stop-color="#5761e8"/><stop offset="0.61" stop-color="#727ff6"/><stop offset="0.63" stop-color="#818cf7"/><stop offset="0.71" stop-color="#a6aefa"/><stop offset="0.78" stop-color="#c3c8fb"/><stop offset="0.86" stop-color="#d7dafd"/><stop offset="0.93" stop-color="#e4e5fe"/><stop offset="1" stop-color="#e8e9fe"/></linearGradient><linearGradient id="Degradado_sin_nombre_203" x1="63.02" y1="21.25" x2="94.6" y2="50.8" gradientUnits="userSpaceOnUse"><stop offset="0.21" stop-color="#c6c7fb"/><stop offset="1" stop-color="#fff" stop-opacity="0"/></linearGradient><linearGradient id="Degradado_sin_nombre_205" x1="88.49" y1="-3.52" x2="87.91" y2="28.63" gradientUnits="userSpaceOnUse"><stop offset="0.26" stop-color="#c6c7fb"/><stop offset="1" stop-color="#fff" stop-opacity="0"/></linearGradient></defs><title>Recurso 4</title><g id="Capa_2" data-name="Capa 2"><g id="Capa_1-2" data-name="Capa 1"><path class="cls-1" d="M324.06,214.12a5.43,5.43,0,0,1-2.68-.71l-9-5.2a1.67,1.67,0,0,1-.83-1.45,1.65,1.65,0,0,1,.83-1.44l9-5.21a5.38,5.38,0,0,1,5.35,0l9,5.21a1.65,1.65,0,0,1,.83,1.44,1.67,1.67,0,0,1-.83,1.45l-9,5.2A5.42,5.42,0,0,1,324.06,214.12Zm0-13.29a3.89,3.89,0,0,0-2,.52l-9,5.2a.24.24,0,0,0,0,.42l9,5.2h0a3.9,3.9,0,0,0,3.91,0l9-5.2a.24.24,0,0,0,0-.42l-9-5.2A3.88,3.88,0,0,0,324.06,200.83Z"/><path class="cls-2" d="M298.29,184.61a8.71,8.71,0,0,1-4.34-1.16l-15.5-8.95a2.34,2.34,0,0,1-1.18-2,2.31,2.31,0,0,1,1.18-2l15.5-9a8.73,8.73,0,0,1,8.68,0l15.5,9a2.31,2.31,0,0,1,1.18,2,2.34,2.34,0,0,1-1.18,2l-15.5,8.95A8.71,8.71,0,0,1,298.29,184.61Zm-3.63-2.4a7.29,7.29,0,0,0,7.26,0l15.5-9a.93.93,0,0,0,0-1.61l-15.5-9a7.29,7.29,0,0,0-7.26,0l-15.5,9a.92.92,0,0,0,0,1.61Z"/><path class="cls-3" d="M21,198.69a8.61,8.61,0,0,1-4.34-1.16l-15.5-8.95a2.35,2.35,0,0,1,0-4.08l15.5-8.95a8.68,8.68,0,0,1,8.68,0l15.51,8.95a2.34,2.34,0,0,1,1.18,2,2.31,2.31,0,0,1-1.18,2l-15.51,8.95A8.58,8.58,0,0,1,21,198.69Zm0-22.87a7.17,7.17,0,0,0-3.62,1l-15.51,9a.9.9,0,0,0-.46.8.92.92,0,0,0,.46.81l15.51,9h0a7.27,7.27,0,0,0,7.25,0l15.5-9a.94.94,0,0,0,.47-.81.91.91,0,0,0-.47-.8l-15.5-9A7.21,7.21,0,0,0,21,175.82Z"/><path class="cls-4" d="M178,237.74l-110.86-64c-1.62-.93-1.42-2.56.45-3.64L138.77,129a7,7,0,0,1,6.31-.26l110.86,64c1.61.94,1.41,2.57-.46,3.64l-71.15,41.08A7,7,0,0,1,178,237.74Z"/><path class="cls-5" d="M180.57,249.3a7.06,7.06,0,0,1-3.49-.82h0l-126.53-73A2.82,2.82,0,0,1,49,173a3.65,3.65,0,0,1,2.12-3l86.25-50.53a8.64,8.64,0,0,1,7.91-.3l126.53,73.05a2.84,2.84,0,0,1,1.6,2.42,3.65,3.65,0,0,1-2.12,3L185,248.18A9,9,0,0,1,180.57,249.3ZM141.76,119.83a7.73,7.73,0,0,0-3.72.91L51.79,171.28c-.88.51-1.41,1.15-1.41,1.73a1.51,1.51,0,0,0,.89,1.19l126.52,73h0a7.32,7.32,0,0,0,6.48-.29l86.25-50.53c.89-.51,1.41-1.16,1.41-1.74a1.5,1.5,0,0,0-.89-1.18l-126.52-73A5.63,5.63,0,0,0,141.76,119.83Z"/><path class="cls-6" d="M285.39,85.46,175,21.7a2.86,2.86,0,0,0-2.25-.32h0l-2,.72.72.17a3.45,3.45,0,0,0-.67,1.26l-25,81.08a4.87,4.87,0,0,0,2,5.45l110.43,63.76a3.29,3.29,0,0,0,.81.33l-.27.6,1.95-.69h0a3.13,3.13,0,0,0,1.78-2.07l25-81.08A4.89,4.89,0,0,0,285.39,85.46Z"/><path class="cls-7" d="M254.22,176.85l0,0-109.07-63a7,7,0,0,0-6.26.26L68.46,154.87l-2.35-.9.66,3.3h0a2,2,0,0,0,1.06,1.32l110.08,63.56a7,7,0,0,0,6.26-.26l70.65-40.79a2.85,2.85,0,0,0,1.5-1.75h0l.68-3.21Z"/><path class="cls-8" d="M178,219.24l-110.86-64c-1.62-.93-1.42-2.56.45-3.64l71.15-41.08a7.05,7.05,0,0,1,6.31-.26l110.86,64c1.61.93,1.41,2.56-.46,3.64L184.33,219A7,7,0,0,1,178,219.24Z"/><path class="cls-9" d="M255.48,177l-71.15,41.08a7,7,0,0,1-6.3.26l-110.86-64a2.07,2.07,0,0,1-1-1.15,1.72,1.72,0,0,0,1,2l110.86,64a7,7,0,0,0,6.3-.26l71.15-41.08c1.23-.71,1.72-1.66,1.46-2.49A2.91,2.91,0,0,1,255.48,177Z"/><g class="cls-10"><path class="cls-11" d="M120.05,144.84l-3.75-2.16c-.3-.17-.26-.47.09-.67l4.42-2.55a1.28,1.28,0,0,1,1.17-.05l3.74,2.16c.3.17.26.48-.08.68l-4.42,2.55A1.28,1.28,0,0,1,120.05,144.84Z"/><path class="cls-11" d="M125.83,148.18,122.08,146c-.3-.17-.26-.48.09-.68l4.42-2.55a1.31,1.31,0,0,1,1.17,0l3.74,2.17c.3.17.26.47-.08.67L127,148.13A1.28,1.28,0,0,1,125.83,148.18Z"/><path class="cls-11" d="M131.61,151.52l-3.75-2.16c-.3-.18-.26-.48.09-.68l4.42-2.55a1.31,1.31,0,0,1,1.17,0l3.74,2.16c.3.18.26.48-.08.68l-4.42,2.55A1.31,1.31,0,0,1,131.61,151.52Z"/><path class="cls-11" d="M139.6,148.76l-3.74-2.16c-.3-.17-.27-.47.08-.67l3.71-2.15a1.28,1.28,0,0,1,1.17,0l3.75,2.16c.3.17.26.47-.09.67l-3.71,2.14A1.28,1.28,0,0,1,139.6,148.76Z"/><path class="cls-11" d="M145.38,152.1l-3.74-2.16c-.3-.17-.27-.48.08-.68l3.71-2.14a1.31,1.31,0,0,1,1.17-.05l3.75,2.16c.3.18.26.48-.09.68l-3.71,2.14A1.31,1.31,0,0,1,145.38,152.1Z"/><path class="cls-11" d="M151.16,155.44l-3.74-2.16c-.3-.18-.27-.48.08-.68l3.71-2.14a1.31,1.31,0,0,1,1.17-.05l3.75,2.16c.3.17.26.48-.09.68l-3.71,2.14A1.31,1.31,0,0,1,151.16,155.44Z"/><path class="cls-11" d="M156.94,158.77l-3.74-2.16c-.3-.17-.27-.47.08-.67L157,153.8a1.28,1.28,0,0,1,1.17-.05l3.75,2.16c.3.17.26.47-.09.67l-3.71,2.15A1.28,1.28,0,0,1,156.94,158.77Z"/><path class="cls-11" d="M162.72,162.11,159,160c-.3-.17-.27-.48.08-.68l3.71-2.14a1.31,1.31,0,0,1,1.17,0l3.75,2.16c.3.18.26.48-.09.68l-3.71,2.14A1.28,1.28,0,0,1,162.72,162.11Z"/><path class="cls-11" d="M168.5,165.45l-3.74-2.16c-.3-.18-.27-.48.08-.68l3.71-2.14a1.31,1.31,0,0,1,1.17-.05l3.75,2.16c.3.18.26.48-.09.68l-3.71,2.14A1.31,1.31,0,0,1,168.5,165.45Z"/><path class="cls-11" d="M174.28,168.79l-3.74-2.17c-.3-.17-.27-.47.08-.67l3.71-2.14a1.28,1.28,0,0,1,1.17-.05l3.75,2.16c.3.17.26.48-.09.68l-3.71,2.14A1.31,1.31,0,0,1,174.28,168.79Z"/><path class="cls-11" d="M180.06,172.12,176.32,170c-.3-.17-.26-.47.08-.67l3.71-2.15a1.28,1.28,0,0,1,1.17,0l3.75,2.16c.3.17.26.47-.09.67l-3.71,2.14A1.28,1.28,0,0,1,180.06,172.12Z"/><path class="cls-11" d="M185.84,175.46l-3.74-2.16c-.3-.17-.26-.48.08-.68l3.71-2.14a1.31,1.31,0,0,1,1.17,0l3.75,2.16c.3.18.26.48-.09.68L187,175.41A1.31,1.31,0,0,1,185.84,175.46Z"/><path class="cls-11" d="M191.62,178.8l-3.74-2.16c-.3-.18-.26-.48.08-.68l3.71-2.14a1.31,1.31,0,0,1,1.17,0l3.75,2.16c.3.17.26.48-.09.68l-3.71,2.14A1.31,1.31,0,0,1,191.62,178.8Z"/><path class="cls-11" d="M148.12,147.18,144.37,145c-.3-.17-.26-.47.09-.67l3.71-2.15a1.28,1.28,0,0,1,1.17,0l3.74,2.16c.3.17.26.47-.08.67l-3.71,2.14A1.28,1.28,0,0,1,148.12,147.18Z"/><path class="cls-11" d="M142.25,143.8l-3.74-2.16c-.3-.18-.27-.48.08-.68l3.71-2.14a1.31,1.31,0,0,1,1.17,0l3.75,2.16c.3.17.26.48-.09.68l-3.71,2.14A1.31,1.31,0,0,1,142.25,143.8Z"/><path class="cls-11" d="M136.37,140.4l-8.06-4.65c-.3-.17-.26-.48.09-.68l3.71-2.14a1.31,1.31,0,0,1,1.17-.05l8.06,4.66c.3.17.26.47-.08.67l-3.71,2.15A1.3,1.3,0,0,1,136.37,140.4Z"/><path class="cls-11" d="M140.48,136.28l-6.54-3.78c-.3-.17-.26-.48.08-.68l3.71-2.14a1.33,1.33,0,0,1,1.18-.05l6.54,3.78c.3.17.26.48-.09.68l-3.71,2.14A1.31,1.31,0,0,1,140.48,136.28Z"/><path class="cls-11" d="M153.9,150.52l-3.75-2.16c-.3-.17-.26-.48.09-.68l3.71-2.14a1.31,1.31,0,0,1,1.17,0l3.74,2.16c.3.18.26.48-.08.68l-3.71,2.14A1.31,1.31,0,0,1,153.9,150.52Z"/><path class="cls-11" d="M159.68,153.86l-3.75-2.16c-.3-.18-.26-.48.09-.68l3.71-2.14a1.31,1.31,0,0,1,1.17,0l3.74,2.16c.3.17.26.48-.08.68l-3.71,2.14A1.31,1.31,0,0,1,159.68,153.86Z"/><path class="cls-11" d="M165.46,157.19,161.71,155c-.3-.17-.26-.47.09-.67l3.71-2.14a1.28,1.28,0,0,1,1.17-.05l3.74,2.16c.3.17.26.47-.08.67l-3.71,2.15A1.28,1.28,0,0,1,165.46,157.19Z"/><path class="cls-11" d="M171.24,160.53l-3.75-2.16c-.3-.17-.26-.48.09-.68l3.71-2.14a1.31,1.31,0,0,1,1.17-.05l3.74,2.16c.3.18.27.48-.08.68l-3.71,2.14A1.28,1.28,0,0,1,171.24,160.53Z"/><path class="cls-11" d="M177,163.87l-3.75-2.16c-.3-.18-.26-.48.09-.68l3.71-2.14a1.31,1.31,0,0,1,1.17,0L182,161c.3.18.27.48-.08.68l-3.71,2.14A1.31,1.31,0,0,1,177,163.87Z"/><path class="cls-11" d="M182.8,167.21,179.05,165c-.3-.17-.26-.47.09-.67l3.71-2.14a1.28,1.28,0,0,1,1.17,0l3.74,2.16c.3.17.27.48-.08.68L184,167.16A1.31,1.31,0,0,1,182.8,167.21Z"/><path class="cls-11" d="M188.58,170.54l-3.75-2.16c-.3-.17-.26-.47.09-.67l3.71-2.15a1.28,1.28,0,0,1,1.17,0l3.74,2.16c.3.17.27.47-.08.67l-3.71,2.14A1.28,1.28,0,0,1,188.58,170.54Z"/><path class="cls-11" d="M194.36,173.88l-3.75-2.16c-.3-.17-.26-.48.09-.68l3.71-2.14a1.31,1.31,0,0,1,1.17-.05l3.74,2.16c.3.18.27.48-.08.68l-3.71,2.14A1.31,1.31,0,0,1,194.36,173.88Z"/><path class="cls-11" d="M200.14,177.22l-3.75-2.16c-.3-.18-.26-.48.09-.68l3.71-2.14a1.31,1.31,0,0,1,1.17-.05l3.74,2.16c.3.17.27.48-.08.68l-3.71,2.14A1.31,1.31,0,0,1,200.14,177.22Z"/><path class="cls-11" d="M210.41,183.15l-8.16-4.72c-.3-.17-.27-.47.08-.67l3.71-2.14a1.28,1.28,0,0,1,1.17-.05l8.17,4.71c.3.18.26.48-.09.68l-3.7,2.14A1.33,1.33,0,0,1,210.41,183.15Z"/><path class="cls-11" d="M221.67,176.65l-6.9-4c-.3-.17-.26-.47.09-.67l3.71-2.14a1.25,1.25,0,0,1,1.17-.05l6.89,4c.3.17.26.47-.08.67l-3.71,2.14A1.28,1.28,0,0,1,221.67,176.65Z"/><path class="cls-11" d="M164,149.87l-3.74-2.16c-.3-.18-.27-.48.08-.68l3.71-2.14a1.31,1.31,0,0,1,1.17,0L169,147c.3.17.27.48-.08.68l-3.71,2.14A1.31,1.31,0,0,1,164,149.87Z"/><path class="cls-11" d="M158.1,146.45l-3.75-2.16c-.3-.18-.26-.48.09-.68l3.71-2.14a1.31,1.31,0,0,1,1.17-.05l3.74,2.16c.3.17.26.48-.08.68l-3.71,2.14A1.31,1.31,0,0,1,158.1,146.45Z"/><path class="cls-11" d="M152.17,143l-3.74-2.16c-.3-.18-.26-.48.08-.68l3.71-2.14a1.31,1.31,0,0,1,1.17-.05l3.75,2.16c.3.17.26.48-.09.68L153.34,143A1.31,1.31,0,0,1,152.17,143Z"/><path class="cls-11" d="M146.25,139.61l-3.75-2.16c-.3-.18-.26-.48.09-.68l3.71-2.14a1.31,1.31,0,0,1,1.17,0l3.74,2.16c.3.17.27.48-.08.68l-3.71,2.14A1.31,1.31,0,0,1,146.25,139.61Z"/><path class="cls-11" d="M169.8,153.2,166.06,151c-.3-.17-.27-.47.08-.67l3.71-2.14a1.28,1.28,0,0,1,1.17,0l3.74,2.16c.3.17.27.47-.08.67L171,153.16A1.28,1.28,0,0,1,169.8,153.2Z"/><path class="cls-11" d="M175.58,156.54l-3.74-2.16c-.3-.17-.27-.48.08-.68l3.71-2.14a1.31,1.31,0,0,1,1.17-.05l3.74,2.16c.3.18.27.48-.08.68l-3.71,2.14A1.28,1.28,0,0,1,175.58,156.54Z"/><path class="cls-11" d="M181.36,159.88l-3.74-2.16c-.3-.18-.27-.48.08-.68l3.71-2.14a1.31,1.31,0,0,1,1.17-.05l3.74,2.16c.3.18.27.48-.08.68l-3.71,2.14A1.31,1.31,0,0,1,181.36,159.88Z"/><path class="cls-11" d="M187.14,163.22l-3.74-2.17c-.3-.17-.27-.47.08-.67l3.71-2.14a1.28,1.28,0,0,1,1.17-.05l3.74,2.16c.3.17.27.48-.08.68l-3.71,2.14A1.31,1.31,0,0,1,187.14,163.22Z"/><path class="cls-11" d="M192.92,166.55l-3.74-2.16c-.3-.17-.27-.47.08-.67l3.71-2.15a1.28,1.28,0,0,1,1.17,0l3.74,2.16c.3.17.27.47-.08.67l-3.71,2.14A1.28,1.28,0,0,1,192.92,166.55Z"/><path class="cls-11" d="M198.7,169.89,195,167.73c-.3-.17-.27-.48.08-.68l3.71-2.14a1.31,1.31,0,0,1,1.17,0l3.74,2.16c.3.18.27.48-.08.68l-3.71,2.14A1.31,1.31,0,0,1,198.7,169.89Z"/><path class="cls-11" d="M204.48,173.23l-3.74-2.16c-.3-.18-.27-.48.08-.68l3.71-2.14a1.31,1.31,0,0,1,1.17-.05l3.74,2.16c.31.17.27.48-.08.68l-3.71,2.14A1.31,1.31,0,0,1,204.48,173.23Z"/><path class="cls-11" d="M210.26,176.56l-3.74-2.16c-.3-.17-.27-.47.08-.67l3.71-2.14a1.25,1.25,0,0,1,1.17-.05l3.74,2.16c.31.17.27.47-.08.67l-3.71,2.15A1.28,1.28,0,0,1,210.26,176.56Z"/><path class="cls-11" d="M216,179.9l-3.74-2.16c-.3-.17-.27-.48.08-.68l3.71-2.14a1.31,1.31,0,0,1,1.17,0L221,177c.31.18.27.48-.08.68l-3.71,2.14A1.31,1.31,0,0,1,216,179.9Z"/><path class="cls-11" d="M161,141.61l-3.75-2.16c-.3-.17-.26-.47.09-.67l3.71-2.15a1.28,1.28,0,0,1,1.17,0l3.74,2.16c.3.17.26.47-.08.67l-3.71,2.14A1.28,1.28,0,0,1,161,141.61Z"/><path class="cls-11" d="M155.22,138.29l-3.74-2.16c-.3-.17-.26-.47.09-.68l3.7-2.14a1.3,1.3,0,0,1,1.18,0l3.74,2.16c.3.17.26.47-.08.67l-3.71,2.14A1.3,1.3,0,0,1,155.22,138.29Z"/><path class="cls-11" d="M149.47,135l-3.74-2.16c-.3-.17-.26-.48.08-.68l3.71-2.14a1.33,1.33,0,0,1,1.18-.05l3.74,2.17c.3.17.26.47-.09.67l-3.7,2.14A1.3,1.3,0,0,1,149.47,135Z"/><path class="cls-11" d="M143.72,131.65,140,129.49c-.3-.17-.26-.48.08-.68l3.71-2.14a1.31,1.31,0,0,1,1.17,0l3.75,2.17c.3.17.26.47-.09.67l-3.71,2.14A1.28,1.28,0,0,1,143.72,131.65Z"/><path class="cls-11" d="M149.64,128.24l-3.75-2.16c-.3-.18-.26-.48.09-.68l1.22-.71a1.33,1.33,0,0,1,1.18,0l3.74,2.16c.3.18.26.48-.09.68l-1.22.71A1.31,1.31,0,0,1,149.64,128.24Z"/><path class="cls-11" d="M157.14,132.57l-3.74-2.16c-.3-.17-.26-.48.08-.68l1.23-.71a1.28,1.28,0,0,1,1.17,0l3.74,2.16c.3.17.27.47-.08.67l-1.23.71A1.31,1.31,0,0,1,157.14,132.57Z"/><path class="cls-11" d="M162.87,135.88l-3.74-2.16c-.3-.18-.27-.48.08-.68l1.23-.71a1.31,1.31,0,0,1,1.17-.05l3.74,2.16c.3.18.26.48-.08.68l-1.23.71A1.31,1.31,0,0,1,162.87,135.88Z"/><path class="cls-11" d="M168.6,139.18,164.85,137c-.3-.17-.26-.47.09-.67l1.22-.71a1.33,1.33,0,0,1,1.18,0l3.74,2.16c.3.17.26.48-.09.68l-1.22.71A1.28,1.28,0,0,1,168.6,139.18Z"/><path class="cls-11" d="M174.32,142.49l-3.74-2.16c-.3-.17-.26-.48.08-.68l1.23-.71a1.28,1.28,0,0,1,1.17,0l3.75,2.16c.3.17.26.47-.09.67l-1.22.71A1.33,1.33,0,0,1,174.32,142.49Z"/><path class="cls-11" d="M206.3,161l-3.74-2.16c-.31-.17-.27-.48.08-.68l1.23-.7a1.28,1.28,0,0,1,1.17,0l3.74,2.16c.3.17.26.47-.08.67l-1.23.71A1.31,1.31,0,0,1,206.3,161Z"/><path class="cls-11" d="M212,164.26l-3.75-2.16c-.3-.18-.26-.48.09-.68l1.22-.71a1.31,1.31,0,0,1,1.17-.05l3.75,2.16c.3.18.26.48-.09.68l-1.22.71A1.31,1.31,0,0,1,212,164.26Z"/><path class="cls-11" d="M217.75,167.56,214,165.4c-.3-.17-.26-.47.08-.67l1.23-.71a1.31,1.31,0,0,1,1.17-.05l3.75,2.16c.3.17.26.48-.09.68l-1.22.71A1.3,1.3,0,0,1,217.75,167.56Z"/><path class="cls-11" d="M223.48,170.87l-3.74-2.16c-.3-.17-.27-.48.08-.68l1.23-.7a1.28,1.28,0,0,1,1.17-.05l3.74,2.16c.3.17.27.47-.08.67l-1.23.71A1.31,1.31,0,0,1,223.48,170.87Z"/><path class="cls-11" d="M166.76,145,163,142.79c-.3-.17-.26-.48.09-.68l3.71-2.14a1.31,1.31,0,0,1,1.17-.05l3.74,2.16c.3.18.26.48-.08.68l-3.71,2.14A1.31,1.31,0,0,1,166.76,145Z"/><path class="cls-11" d="M172.54,148.29l-3.75-2.16c-.3-.18-.26-.48.09-.68l3.71-2.14a1.31,1.31,0,0,1,1.17-.05l3.74,2.16c.3.17.26.48-.08.68l-3.71,2.14A1.31,1.31,0,0,1,172.54,148.29Z"/><path class="cls-11" d="M178.32,151.62l-3.75-2.16c-.3-.17-.26-.47.09-.67l3.71-2.14a1.28,1.28,0,0,1,1.17-.05l3.74,2.16c.3.17.26.47-.08.67l-3.71,2.15A1.28,1.28,0,0,1,178.32,151.62Z"/><path class="cls-11" d="M184.1,155l-3.75-2.16c-.3-.17-.26-.48.09-.68l3.71-2.14a1.31,1.31,0,0,1,1.17,0l3.74,2.17c.3.17.26.47-.08.67l-3.71,2.14A1.28,1.28,0,0,1,184.1,155Z"/><path class="cls-11" d="M189.88,158.3l-3.75-2.16c-.3-.18-.26-.48.09-.68l3.71-2.14a1.31,1.31,0,0,1,1.17,0l3.74,2.16c.3.18.26.48-.08.68l-3.71,2.14A1.31,1.31,0,0,1,189.88,158.3Z"/><path class="cls-11" d="M195.66,161.64l-3.75-2.17c-.3-.17-.26-.47.09-.67l3.71-2.14a1.28,1.28,0,0,1,1.17,0l3.74,2.16c.3.17.26.48-.08.68l-3.71,2.14A1.31,1.31,0,0,1,195.66,161.64Z"/><path class="cls-11" d="M201.44,165l-3.75-2.16c-.3-.17-.26-.47.09-.67l3.71-2.15a1.28,1.28,0,0,1,1.17,0l3.74,2.16c.3.17.26.47-.08.67l-3.71,2.14A1.28,1.28,0,0,1,201.44,165Z"/><path class="cls-11" d="M207.22,168.31l-3.75-2.16c-.3-.17-.26-.48.09-.68l3.71-2.14a1.31,1.31,0,0,1,1.17-.05l3.74,2.16c.3.18.26.48-.08.68l-3.71,2.14A1.31,1.31,0,0,1,207.22,168.31Z"/><path class="cls-11" d="M213,171.65l-3.75-2.16c-.3-.18-.26-.48.09-.68l3.71-2.14a1.31,1.31,0,0,1,1.17,0l3.74,2.16c.3.17.26.48-.08.68l-3.71,2.14A1.31,1.31,0,0,1,213,171.65Z"/><path class="cls-11" d="M133.71,145.36l-11-6.36c-.3-.18-.27-.48.08-.68l3.71-2.14a1.31,1.31,0,0,1,1.17-.05l11,6.37c.3.17.26.47-.09.67l-3.71,2.14A1.28,1.28,0,0,1,133.71,145.36Z"/><path class="cls-11" d="M204.72,186.36l-11-6.36c-.3-.18-.27-.48.08-.68l3.71-2.14a1.31,1.31,0,0,1,1.17-.05l11,6.36c.3.18.27.48-.08.68l-3.71,2.14A1.31,1.31,0,0,1,204.72,186.36Z"/><path class="cls-11" d="M181.6,180.39l-3.74-2.17c-.3-.17-.26-.47.09-.67l4.41-2.55a1.3,1.3,0,0,1,1.18-.05l3.74,2.16c.3.17.26.48-.09.68l-4.41,2.55A1.33,1.33,0,0,1,181.6,180.39Z"/><path class="cls-11" d="M139.63,156.15l-6-3.45c-.3-.18-.26-.48.09-.68l4.42-2.55a1.31,1.31,0,0,1,1.17-.05l6,3.45c.3.18.27.48-.08.68l-4.42,2.55A1.31,1.31,0,0,1,139.63,156.15Z"/><path class="cls-11" d="M176,177.17l-6-3.46c-.3-.17-.26-.47.08-.67l4.42-2.55a1.28,1.28,0,0,1,1.17-.05l6,3.45c.3.18.26.48-.08.68l-4.42,2.55A1.33,1.33,0,0,1,176,177.17Z"/><path class="cls-11" d="M148,161l-6-3.46c-.3-.17-.26-.48.09-.68l4.41-2.55a1.33,1.33,0,0,1,1.18-.05l6,3.46c.3.17.27.48-.08.68l-4.42,2.55A1.31,1.31,0,0,1,148,161Z"/><path class="cls-11" d="M147.7,154.26l26,15c.33.19.33.49,0,.68l-4.5,2.6a1.27,1.27,0,0,1-1.17,0l-26-15Z"/><path class="cls-11" d="M197.76,186.44l4.17,2.4c.24.15.21.39-.07.56l-1.81,1a1.05,1.05,0,0,1-1,0l-4.17-2.41c-.25-.14-.21-.39.07-.55l1.81-1A1,1,0,0,1,197.76,186.44Z"/><path class="cls-11" d="M191.93,183.07l4.17,2.41c.25.14.21.39-.07.55l-1.81,1.05a1.09,1.09,0,0,1-1,0l-4.17-2.41c-.24-.14-.21-.39.07-.56l1.81-1A1.09,1.09,0,0,1,191.93,183.07Z"/><path class="cls-11" d="M186.15,179.73l4.17,2.41c.25.14.21.39-.07.56l-1.81,1a1.09,1.09,0,0,1-1,0l-4.17-2.41c-.24-.14-.21-.39.07-.55l1.81-1A1.09,1.09,0,0,1,186.15,179.73Z"/><path class="cls-11" d="M195.12,181.23l4.17,2.41c.25.14.22.39-.07.55l-1.8,1a1,1,0,0,1-1,0l-4.16-2.4c-.25-.15-.22-.39.06-.56l1.81-1A1.06,1.06,0,0,1,195.12,181.23Z"/></g><path class="cls-12" d="M120.05,144.84l-3.75-2.16c-.3-.17-.26-.47.09-.67l4.42-2.55a1.28,1.28,0,0,1,1.17-.05l3.74,2.16c.3.17.26.48-.08.68l-4.42,2.55A1.28,1.28,0,0,1,120.05,144.84Z"/><path class="cls-12" d="M125.83,148.18,122.08,146c-.3-.17-.26-.48.09-.68l4.42-2.55a1.31,1.31,0,0,1,1.17,0l3.74,2.17c.3.17.26.47-.08.67L127,148.13A1.28,1.28,0,0,1,125.83,148.18Z"/><path class="cls-12" d="M131.61,151.52l-3.75-2.16c-.3-.18-.26-.48.09-.68l4.42-2.55a1.31,1.31,0,0,1,1.17,0l3.74,2.16c.3.18.26.48-.08.68l-4.42,2.55A1.31,1.31,0,0,1,131.61,151.52Z"/><path class="cls-12" d="M139.6,148.76l-3.74-2.16c-.3-.17-.27-.47.08-.67l3.71-2.15a1.28,1.28,0,0,1,1.17,0l3.75,2.16c.3.17.26.47-.09.67l-3.71,2.14A1.28,1.28,0,0,1,139.6,148.76Z"/><path class="cls-12" d="M145.38,152.1l-3.74-2.16c-.3-.17-.27-.48.08-.68l3.71-2.14a1.31,1.31,0,0,1,1.17-.05l3.75,2.16c.3.18.26.48-.09.68l-3.71,2.14A1.31,1.31,0,0,1,145.38,152.1Z"/><path class="cls-12" d="M151.16,155.44l-3.74-2.16c-.3-.18-.27-.48.08-.68l3.71-2.14a1.31,1.31,0,0,1,1.17-.05l3.75,2.16c.3.17.26.48-.09.68l-3.71,2.14A1.31,1.31,0,0,1,151.16,155.44Z"/><path class="cls-12" d="M156.94,158.77l-3.74-2.16c-.3-.17-.27-.47.08-.67L157,153.8a1.28,1.28,0,0,1,1.17-.05l3.75,2.16c.3.17.26.47-.09.67l-3.71,2.15A1.28,1.28,0,0,1,156.94,158.77Z"/><path class="cls-12" d="M162.72,162.11,159,160c-.3-.17-.27-.48.08-.68l3.71-2.14a1.31,1.31,0,0,1,1.17,0l3.75,2.16c.3.18.26.48-.09.68l-3.71,2.14A1.28,1.28,0,0,1,162.72,162.11Z"/><path class="cls-12" d="M168.5,165.45l-3.74-2.16c-.3-.18-.27-.48.08-.68l3.71-2.14a1.31,1.31,0,0,1,1.17-.05l3.75,2.16c.3.18.26.48-.09.68l-3.71,2.14A1.31,1.31,0,0,1,168.5,165.45Z"/><path class="cls-12" d="M174.28,168.79l-3.74-2.17c-.3-.17-.27-.47.08-.67l3.71-2.14a1.28,1.28,0,0,1,1.17-.05l3.75,2.16c.3.17.26.48-.09.68l-3.71,2.14A1.31,1.31,0,0,1,174.28,168.79Z"/><path class="cls-12" d="M180.06,172.12,176.32,170c-.3-.17-.26-.47.08-.67l3.71-2.15a1.28,1.28,0,0,1,1.17,0l3.75,2.16c.3.17.26.47-.09.67l-3.71,2.14A1.28,1.28,0,0,1,180.06,172.12Z"/><path class="cls-12" d="M185.84,175.46l-3.74-2.16c-.3-.17-.26-.48.08-.68l3.71-2.14a1.31,1.31,0,0,1,1.17,0l3.75,2.16c.3.18.26.48-.09.68L187,175.41A1.31,1.31,0,0,1,185.84,175.46Z"/><path class="cls-12" d="M191.62,178.8l-3.74-2.16c-.3-.18-.26-.48.08-.68l3.71-2.14a1.31,1.31,0,0,1,1.17,0l3.75,2.16c.3.17.26.48-.09.68l-3.71,2.14A1.31,1.31,0,0,1,191.62,178.8Z"/><path class="cls-12" d="M148.12,147.18,144.37,145c-.3-.17-.26-.47.09-.67l3.71-2.15a1.28,1.28,0,0,1,1.17,0l3.74,2.16c.3.17.26.47-.08.67l-3.71,2.14A1.28,1.28,0,0,1,148.12,147.18Z"/><path class="cls-12" d="M142.25,143.8l-3.74-2.16c-.3-.18-.27-.48.08-.68l3.71-2.14a1.31,1.31,0,0,1,1.17,0l3.75,2.16c.3.17.26.48-.09.68l-3.71,2.14A1.31,1.31,0,0,1,142.25,143.8Z"/><path class="cls-12" d="M136.37,140.4l-8.06-4.65c-.3-.17-.26-.48.09-.68l3.71-2.14a1.31,1.31,0,0,1,1.17-.05l8.06,4.66c.3.17.26.47-.08.67l-3.71,2.15A1.3,1.3,0,0,1,136.37,140.4Z"/><path class="cls-12" d="M140.48,136.28l-6.54-3.78c-.3-.17-.26-.48.08-.68l3.71-2.14a1.33,1.33,0,0,1,1.18-.05l6.54,3.78c.3.17.26.48-.09.68l-3.71,2.14A1.31,1.31,0,0,1,140.48,136.28Z"/><path class="cls-12" d="M153.9,150.52l-3.75-2.16c-.3-.17-.26-.48.09-.68l3.71-2.14a1.31,1.31,0,0,1,1.17,0l3.74,2.16c.3.18.26.48-.08.68l-3.71,2.14A1.31,1.31,0,0,1,153.9,150.52Z"/><path class="cls-12" d="M159.68,153.86l-3.75-2.16c-.3-.18-.26-.48.09-.68l3.71-2.14a1.31,1.31,0,0,1,1.17,0l3.74,2.16c.3.17.26.48-.08.68l-3.71,2.14A1.31,1.31,0,0,1,159.68,153.86Z"/><path class="cls-12" d="M165.46,157.19,161.71,155c-.3-.17-.26-.47.09-.67l3.71-2.14a1.28,1.28,0,0,1,1.17-.05l3.74,2.16c.3.17.26.47-.08.67l-3.71,2.15A1.28,1.28,0,0,1,165.46,157.19Z"/><path class="cls-12" d="M171.24,160.53l-3.75-2.16c-.3-.17-.26-.48.09-.68l3.71-2.14a1.31,1.31,0,0,1,1.17-.05l3.74,2.16c.3.18.27.48-.08.68l-3.71,2.14A1.28,1.28,0,0,1,171.24,160.53Z"/><path class="cls-12" d="M177,163.87l-3.75-2.16c-.3-.18-.26-.48.09-.68l3.71-2.14a1.31,1.31,0,0,1,1.17,0L182,161c.3.18.27.48-.08.68l-3.71,2.14A1.31,1.31,0,0,1,177,163.87Z"/><path class="cls-12" d="M182.8,167.21,179.05,165c-.3-.17-.26-.47.09-.67l3.71-2.14a1.28,1.28,0,0,1,1.17,0l3.74,2.16c.3.17.27.48-.08.68L184,167.16A1.31,1.31,0,0,1,182.8,167.21Z"/><path class="cls-12" d="M188.58,170.54l-3.75-2.16c-.3-.17-.26-.47.09-.67l3.71-2.15a1.28,1.28,0,0,1,1.17,0l3.74,2.16c.3.17.27.47-.08.67l-3.71,2.14A1.28,1.28,0,0,1,188.58,170.54Z"/><path class="cls-12" d="M194.36,173.88l-3.75-2.16c-.3-.17-.26-.48.09-.68l3.71-2.14a1.31,1.31,0,0,1,1.17-.05l3.74,2.16c.3.18.27.48-.08.68l-3.71,2.14A1.31,1.31,0,0,1,194.36,173.88Z"/><path class="cls-12" d="M200.14,177.22l-3.75-2.16c-.3-.18-.26-.48.09-.68l3.71-2.14a1.31,1.31,0,0,1,1.17-.05l3.74,2.16c.3.17.27.48-.08.68l-3.71,2.14A1.31,1.31,0,0,1,200.14,177.22Z"/><path class="cls-12" d="M210.41,183.15l-8.16-4.72c-.3-.17-.27-.47.08-.67l3.71-2.14a1.28,1.28,0,0,1,1.17-.05l8.17,4.71c.3.18.26.48-.09.68l-3.7,2.14A1.33,1.33,0,0,1,210.41,183.15Z"/><path class="cls-12" d="M221.67,176.65l-6.9-4c-.3-.17-.26-.47.09-.67l3.71-2.14a1.25,1.25,0,0,1,1.17-.05l6.89,4c.3.17.26.47-.08.67l-3.71,2.14A1.28,1.28,0,0,1,221.67,176.65Z"/><path class="cls-12" d="M164,149.87l-3.74-2.16c-.3-.18-.27-.48.08-.68l3.71-2.14a1.31,1.31,0,0,1,1.17,0L169,147c.3.17.27.48-.08.68l-3.71,2.14A1.31,1.31,0,0,1,164,149.87Z"/><path class="cls-12" d="M158.1,146.45l-3.75-2.16c-.3-.18-.26-.48.09-.68l3.71-2.14a1.31,1.31,0,0,1,1.17-.05l3.74,2.16c.3.17.26.48-.08.68l-3.71,2.14A1.31,1.31,0,0,1,158.1,146.45Z"/><path class="cls-12" d="M152.17,143l-3.74-2.16c-.3-.18-.26-.48.08-.68l3.71-2.14a1.31,1.31,0,0,1,1.17-.05l3.75,2.16c.3.17.26.48-.09.68L153.34,143A1.31,1.31,0,0,1,152.17,143Z"/><path class="cls-12" d="M146.25,139.61l-3.75-2.16c-.3-.18-.26-.48.09-.68l3.71-2.14a1.31,1.31,0,0,1,1.17,0l3.74,2.16c.3.17.27.48-.08.68l-3.71,2.14A1.31,1.31,0,0,1,146.25,139.61Z"/><path class="cls-12" d="M169.8,153.2,166.06,151c-.3-.17-.27-.47.08-.67l3.71-2.14a1.28,1.28,0,0,1,1.17,0l3.74,2.16c.3.17.27.47-.08.67L171,153.16A1.28,1.28,0,0,1,169.8,153.2Z"/><path class="cls-12" d="M175.58,156.54l-3.74-2.16c-.3-.17-.27-.48.08-.68l3.71-2.14a1.31,1.31,0,0,1,1.17-.05l3.74,2.16c.3.18.27.48-.08.68l-3.71,2.14A1.28,1.28,0,0,1,175.58,156.54Z"/><path class="cls-12" d="M181.36,159.88l-3.74-2.16c-.3-.18-.27-.48.08-.68l3.71-2.14a1.31,1.31,0,0,1,1.17-.05l3.74,2.16c.3.18.27.48-.08.68l-3.71,2.14A1.31,1.31,0,0,1,181.36,159.88Z"/><path class="cls-12" d="M187.14,163.22l-3.74-2.17c-.3-.17-.27-.47.08-.67l3.71-2.14a1.28,1.28,0,0,1,1.17-.05l3.74,2.16c.3.17.27.48-.08.68l-3.71,2.14A1.31,1.31,0,0,1,187.14,163.22Z"/><path class="cls-12" d="M192.92,166.55l-3.74-2.16c-.3-.17-.27-.47.08-.67l3.71-2.15a1.28,1.28,0,0,1,1.17,0l3.74,2.16c.3.17.27.47-.08.67l-3.71,2.14A1.28,1.28,0,0,1,192.92,166.55Z"/><path class="cls-12" d="M198.7,169.89,195,167.73c-.3-.17-.27-.48.08-.68l3.71-2.14a1.31,1.31,0,0,1,1.17,0l3.74,2.16c.3.18.27.48-.08.68l-3.71,2.14A1.31,1.31,0,0,1,198.7,169.89Z"/><path class="cls-12" d="M204.48,173.23l-3.74-2.16c-.3-.18-.27-.48.08-.68l3.71-2.14a1.31,1.31,0,0,1,1.17-.05l3.74,2.16c.31.17.27.48-.08.68l-3.71,2.14A1.31,1.31,0,0,1,204.48,173.23Z"/><path class="cls-12" d="M210.26,176.56l-3.74-2.16c-.3-.17-.27-.47.08-.67l3.71-2.14a1.25,1.25,0,0,1,1.17-.05l3.74,2.16c.31.17.27.47-.08.67l-3.71,2.15A1.28,1.28,0,0,1,210.26,176.56Z"/><path class="cls-12" d="M216,179.9l-3.74-2.16c-.3-.17-.27-.48.08-.68l3.71-2.14a1.31,1.31,0,0,1,1.17,0L221,177c.31.18.27.48-.08.68l-3.71,2.14A1.31,1.31,0,0,1,216,179.9Z"/><path class="cls-12" d="M161,141.61l-3.75-2.16c-.3-.17-.26-.47.09-.67l3.71-2.15a1.28,1.28,0,0,1,1.17,0l3.74,2.16c.3.17.26.47-.08.67l-3.71,2.14A1.28,1.28,0,0,1,161,141.61Z"/><path class="cls-12" d="M155.22,138.29l-3.74-2.16c-.3-.17-.26-.47.09-.68l3.7-2.14a1.3,1.3,0,0,1,1.18,0l3.74,2.16c.3.17.26.47-.08.67l-3.71,2.14A1.3,1.3,0,0,1,155.22,138.29Z"/><path class="cls-12" d="M149.47,135l-3.74-2.16c-.3-.17-.26-.48.08-.68l3.71-2.14a1.33,1.33,0,0,1,1.18-.05l3.74,2.17c.3.17.26.47-.09.67l-3.7,2.14A1.3,1.3,0,0,1,149.47,135Z"/><path class="cls-12" d="M143.72,131.65,140,129.49c-.3-.17-.26-.48.08-.68l3.71-2.14a1.31,1.31,0,0,1,1.17,0l3.75,2.17c.3.17.26.47-.09.67l-3.71,2.14A1.28,1.28,0,0,1,143.72,131.65Z"/><path class="cls-12" d="M149.64,128.24l-3.75-2.16c-.3-.18-.26-.48.09-.68l1.22-.71a1.33,1.33,0,0,1,1.18,0l3.74,2.16c.3.18.26.48-.09.68l-1.22.71A1.31,1.31,0,0,1,149.64,128.24Z"/><path class="cls-12" d="M157.14,132.57l-3.74-2.16c-.3-.17-.26-.48.08-.68l1.23-.71a1.28,1.28,0,0,1,1.17,0l3.74,2.16c.3.17.27.47-.08.67l-1.23.71A1.31,1.31,0,0,1,157.14,132.57Z"/><path class="cls-12" d="M162.87,135.88l-3.74-2.16c-.3-.18-.27-.48.08-.68l1.23-.71a1.31,1.31,0,0,1,1.17-.05l3.74,2.16c.3.18.26.48-.08.68l-1.23.71A1.31,1.31,0,0,1,162.87,135.88Z"/><path class="cls-12" d="M168.6,139.18,164.85,137c-.3-.17-.26-.47.09-.67l1.22-.71a1.33,1.33,0,0,1,1.18,0l3.74,2.16c.3.17.26.48-.09.68l-1.22.71A1.28,1.28,0,0,1,168.6,139.18Z"/><path class="cls-12" d="M174.32,142.49l-3.74-2.16c-.3-.17-.26-.48.08-.68l1.23-.71a1.28,1.28,0,0,1,1.17,0l3.75,2.16c.3.17.26.47-.09.67l-1.22.71A1.33,1.33,0,0,1,174.32,142.49Z"/><path class="cls-12" d="M206.3,161l-3.74-2.16c-.31-.17-.27-.48.08-.68l1.23-.7a1.28,1.28,0,0,1,1.17,0l3.74,2.16c.3.17.26.47-.08.67l-1.23.71A1.31,1.31,0,0,1,206.3,161Z"/><path class="cls-12" d="M212,164.26l-3.75-2.16c-.3-.18-.26-.48.09-.68l1.22-.71a1.31,1.31,0,0,1,1.17-.05l3.75,2.16c.3.18.26.48-.09.68l-1.22.71A1.31,1.31,0,0,1,212,164.26Z"/><path class="cls-12" d="M217.75,167.56,214,165.4c-.3-.17-.26-.47.08-.67l1.23-.71a1.31,1.31,0,0,1,1.17-.05l3.75,2.16c.3.17.26.48-.09.68l-1.22.71A1.3,1.3,0,0,1,217.75,167.56Z"/><path class="cls-12" d="M223.48,170.87l-3.74-2.16c-.3-.17-.27-.48.08-.68l1.23-.7a1.28,1.28,0,0,1,1.17-.05l3.74,2.16c.3.17.27.47-.08.67l-1.23.71A1.31,1.31,0,0,1,223.48,170.87Z"/><path class="cls-12" d="M166.76,145,163,142.79c-.3-.17-.26-.48.09-.68l3.71-2.14a1.31,1.31,0,0,1,1.17-.05l3.74,2.16c.3.18.26.48-.08.68l-3.71,2.14A1.31,1.31,0,0,1,166.76,145Z"/><path class="cls-12" d="M172.54,148.29l-3.75-2.16c-.3-.18-.26-.48.09-.68l3.71-2.14a1.31,1.31,0,0,1,1.17-.05l3.74,2.16c.3.17.26.48-.08.68l-3.71,2.14A1.31,1.31,0,0,1,172.54,148.29Z"/><path class="cls-12" d="M178.32,151.62l-3.75-2.16c-.3-.17-.26-.47.09-.67l3.71-2.14a1.28,1.28,0,0,1,1.17-.05l3.74,2.16c.3.17.26.47-.08.67l-3.71,2.15A1.28,1.28,0,0,1,178.32,151.62Z"/><path class="cls-12" d="M184.1,155l-3.75-2.16c-.3-.17-.26-.48.09-.68l3.71-2.14a1.31,1.31,0,0,1,1.17,0l3.74,2.17c.3.17.26.47-.08.67l-3.71,2.14A1.28,1.28,0,0,1,184.1,155Z"/><path class="cls-12" d="M189.88,158.3l-3.75-2.16c-.3-.18-.26-.48.09-.68l3.71-2.14a1.31,1.31,0,0,1,1.17,0l3.74,2.16c.3.18.26.48-.08.68l-3.71,2.14A1.31,1.31,0,0,1,189.88,158.3Z"/><path class="cls-12" d="M195.66,161.64l-3.75-2.17c-.3-.17-.26-.47.09-.67l3.71-2.14a1.28,1.28,0,0,1,1.17,0l3.74,2.16c.3.17.26.48-.08.68l-3.71,2.14A1.31,1.31,0,0,1,195.66,161.64Z"/><path class="cls-12" d="M201.44,165l-3.75-2.16c-.3-.17-.26-.47.09-.67l3.71-2.15a1.28,1.28,0,0,1,1.17,0l3.74,2.16c.3.17.26.47-.08.67l-3.71,2.14A1.28,1.28,0,0,1,201.44,165Z"/><path class="cls-12" d="M207.22,168.31l-3.75-2.16c-.3-.17-.26-.48.09-.68l3.71-2.14a1.31,1.31,0,0,1,1.17-.05l3.74,2.16c.3.18.26.48-.08.68l-3.71,2.14A1.31,1.31,0,0,1,207.22,168.31Z"/><path class="cls-12" d="M213,171.65l-3.75-2.16c-.3-.18-.26-.48.09-.68l3.71-2.14a1.31,1.31,0,0,1,1.17,0l3.74,2.16c.3.17.26.48-.08.68l-3.71,2.14A1.31,1.31,0,0,1,213,171.65Z"/><path class="cls-12" d="M133.71,145.36l-11-6.36c-.3-.18-.27-.48.08-.68l3.71-2.14a1.31,1.31,0,0,1,1.17-.05l11,6.37c.3.17.26.47-.09.67l-3.71,2.14A1.28,1.28,0,0,1,133.71,145.36Z"/><path class="cls-12" d="M204.72,186.36l-11-6.36c-.3-.18-.27-.48.08-.68l3.71-2.14a1.31,1.31,0,0,1,1.17-.05l11,6.36c.3.18.27.48-.08.68l-3.71,2.14A1.31,1.31,0,0,1,204.72,186.36Z"/><path class="cls-12" d="M181.6,180.39l-3.74-2.17c-.3-.17-.26-.47.09-.67l4.41-2.55a1.3,1.3,0,0,1,1.18-.05l3.74,2.16c.3.17.26.48-.09.68l-4.41,2.55A1.33,1.33,0,0,1,181.6,180.39Z"/><path class="cls-12" d="M139.63,156.15l-6-3.45c-.3-.18-.26-.48.09-.68l4.42-2.55a1.31,1.31,0,0,1,1.17-.05l6,3.45c.3.18.27.48-.08.68l-4.42,2.55A1.31,1.31,0,0,1,139.63,156.15Z"/><path class="cls-12" d="M176,177.17l-6-3.46c-.3-.17-.26-.47.08-.67l4.42-2.55a1.28,1.28,0,0,1,1.17-.05l6,3.45c.3.18.26.48-.08.68l-4.42,2.55A1.33,1.33,0,0,1,176,177.17Z"/><path class="cls-12" d="M148,161l-6-3.46c-.3-.17-.26-.48.09-.68l4.41-2.55a1.33,1.33,0,0,1,1.18-.05l6,3.46c.3.17.27.48-.08.68l-4.42,2.55A1.31,1.31,0,0,1,148,161Z"/><path class="cls-12" d="M147.7,154.26l26,15c.33.19.33.49,0,.68l-4.5,2.6a1.27,1.27,0,0,1-1.17,0l-26-15Z"/><path class="cls-12" d="M197.76,186.44l4.17,2.4c.24.15.21.39-.07.56l-1.81,1a1.05,1.05,0,0,1-1,0l-4.17-2.41c-.25-.14-.21-.39.07-.55l1.81-1A1,1,0,0,1,197.76,186.44Z"/><path class="cls-12" d="M191.93,183.07l4.17,2.41c.25.14.21.39-.07.55l-1.81,1.05a1.09,1.09,0,0,1-1,0l-4.17-2.41c-.24-.14-.21-.39.07-.56l1.81-1A1.09,1.09,0,0,1,191.93,183.07Z"/><path class="cls-12" d="M186.15,179.73l4.17,2.41c.25.14.21.39-.07.56l-1.81,1a1.09,1.09,0,0,1-1,0l-4.17-2.41c-.24-.14-.21-.39.07-.55l1.81-1A1.09,1.09,0,0,1,186.15,179.73Z"/><path class="cls-12" d="M195.12,181.23l4.17,2.41c.25.14.22.39-.07.55l-1.8,1a1,1,0,0,1-1,0l-4.16-2.4c-.25-.15-.22-.39.06-.56l1.81-1A1.06,1.06,0,0,1,195.12,181.23Z"/><path class="cls-13" d="M256.29,174.48,145.87,110.72a4.87,4.87,0,0,1-2-5.45l25-81.08a2.84,2.84,0,0,1,4.26-1.83L283.51,86.12a4.89,4.89,0,0,1,2,5.45l-25,81.08A2.84,2.84,0,0,1,256.29,174.48Z"/><path class="cls-14" d="M255.25,171.64l-107.1-61.89a4.69,4.69,0,0,1-1.94-5.22L170.08,27a2.72,2.72,0,0,1,4.09-1.75l107.1,61.89a4.68,4.68,0,0,1,1.94,5.22l-23.88,77.51A2.71,2.71,0,0,1,255.25,171.64Z"/><path class="cls-15" d="M255.25,171.64l-107.1-61.89a4.69,4.69,0,0,1-1.94-5.22L170.08,27a2.72,2.72,0,0,1,4.09-1.75l107.1,61.89a4.68,4.68,0,0,1,1.94,5.22l-23.88,77.51A2.71,2.71,0,0,1,255.25,171.64Z"/><path class="cls-16" d="M255.25,171.64l-107.1-61.89a4.69,4.69,0,0,1-1.94-5.22L170.08,27a2.72,2.72,0,0,1,4.09-1.75l107.1,61.89a4.68,4.68,0,0,1,1.94,5.22l-23.88,77.51A2.71,2.71,0,0,1,255.25,171.64Z"/><path class="cls-17" d="M243.81,157.43l-72.5-41.86A3.22,3.22,0,0,1,170,112l16.4-53.23a1.86,1.86,0,0,1,2.8-1.2l72.5,41.86A3.2,3.2,0,0,1,263,103l-16.4,53.24A1.87,1.87,0,0,1,243.81,157.43Z"/><path class="cls-18" d="M239.7,149.24l-72.5-41.87a3.2,3.2,0,0,1-1.33-3.58l16.4-53.24a1.85,1.85,0,0,1,2.79-1.19l72.51,41.86a3.2,3.2,0,0,1,1.33,3.58L242.5,148A1.87,1.87,0,0,1,239.7,149.24Z"/><g class="cls-19"><path class="cls-20" d="M239.7,149.24l-72.5-41.87a3.2,3.2,0,0,1-1.33-3.58l16.4-53.24a1.85,1.85,0,0,1,2.79-1.19l72.51,41.86a3.2,3.2,0,0,1,1.33,3.58L242.5,148A1.87,1.87,0,0,1,239.7,149.24Z"/></g><path class="cls-9" d="M257.57,91.22,185.06,49.36a1.78,1.78,0,0,0-2,.07,2,2,0,0,1,1,.26l72.51,41.86a3.23,3.23,0,0,1,1.33,3.59l-16.4,53.23a2.13,2.13,0,0,1-.76,1.13A1.91,1.91,0,0,0,242.5,148L258.9,94.8A3.2,3.2,0,0,0,257.57,91.22Z"/><path class="cls-15" d="M148.26,192.71a5.49,5.49,0,0,1-2.69-.63h0l-29-16.77a2.1,2.1,0,0,1-1.19-1.79,2.75,2.75,0,0,1,1.6-2.22l14.95-8.64a6.72,6.72,0,0,1,6.11-.23l29,16.77a2.1,2.1,0,0,1,1.19,1.79,2.75,2.75,0,0,1-1.6,2.22l-14.95,8.63A6.93,6.93,0,0,1,148.26,192.71Zm-12.94-30.06a6.25,6.25,0,0,0-3,.74l-15,8.63c-.75.44-1.18,1-1.18,1.5a1.32,1.32,0,0,0,.77,1.06L146,191.35a6,6,0,0,0,5.27-.23l15-8.64c.75-.43,1.18-1,1.18-1.49a1.32,1.32,0,0,0-.77-1.06l-29.05-16.77A4.62,4.62,0,0,0,135.32,162.65Z"/><path class="cls-9" d="M202.72,77.29l-4.48-2.59a1.18,1.18,0,0,1-.5-1.29h0a.67.67,0,0,1,1-.42l4.48,2.59a1.16,1.16,0,0,1,.5,1.29h0A.67.67,0,0,1,202.72,77.29Z"/><path class="cls-9" d="M213.4,83.45l-6.61-3.82a1.17,1.17,0,0,1-.5-1.28h0a.66.66,0,0,1,1-.42l6.61,3.81a1.17,1.17,0,0,1,.5,1.29h0A.67.67,0,0,1,213.4,83.45Z"/><path class="cls-21" d="M193.68,97.24l-4.48-2.59a1.17,1.17,0,0,1-.5-1.28h0a.66.66,0,0,1,1-.42l4.48,2.58a1.17,1.17,0,0,1,.5,1.29h0A.66.66,0,0,1,193.68,97.24Z"/><path class="cls-21" d="M203.2,102.74l-6.61-3.82a1.16,1.16,0,0,1-.49-1.29h0a.66.66,0,0,1,1-.42l6.61,3.82a1.17,1.17,0,0,1,.5,1.29h0A.67.67,0,0,1,203.2,102.74Z"/><path class="cls-9" d="M189.3,73.73l-2.8-1.62a1.16,1.16,0,0,1-.5-1.29h0a.67.67,0,0,1,1-.42l2.8,1.62a1.18,1.18,0,0,1,.5,1.29h0A.67.67,0,0,1,189.3,73.73Z"/><path class="cls-9" d="M197.72,82.79l-8.55-4.94a1.17,1.17,0,0,1-.5-1.29h0a.67.67,0,0,1,1-.42l8.55,4.94a1.17,1.17,0,0,1,.5,1.29h0A.67.67,0,0,1,197.72,82.79Z"/><path class="cls-9" d="M189.83,86.63,187,85a1.18,1.18,0,0,1-.5-1.29h0a.67.67,0,0,1,1-.42l2.8,1.62a1.17,1.17,0,0,1,.5,1.29h0A.67.67,0,0,1,189.83,86.63Z"/><path class="cls-9" d="M204.24,111.73l-7.48-4.32a1.17,1.17,0,0,1-.5-1.29h0a.67.67,0,0,1,1-.42l7.47,4.32a1.16,1.16,0,0,1,.5,1.29h0A.66.66,0,0,1,204.24,111.73Z"/><path class="cls-21" d="M186.69,93.21l-1.79-1a1.17,1.17,0,0,1-.5-1.29h0a.67.67,0,0,1,1-.42l1.79,1a1.17,1.17,0,0,1,.5,1.29h0A.67.67,0,0,1,186.69,93.21Z"/><path class="cls-9" d="M185,100.62l-2.23-1.29a1.17,1.17,0,0,1-.5-1.29h0a.67.67,0,0,1,1-.42l2.23,1.29a1.17,1.17,0,0,1,.5,1.29h0A.67.67,0,0,1,185,100.62Z"/><path class="cls-9" d="M193.68,105.63l-5.89-3.4a1.18,1.18,0,0,1-.5-1.29h0a.67.67,0,0,1,1-.42l5.89,3.4a1.18,1.18,0,0,1,.49,1.29h0A.66.66,0,0,1,193.68,105.63Z"/><path class="cls-9" d="M185.92,105.35l-4.23-2.44a1.18,1.18,0,0,1-.5-1.29h0a.67.67,0,0,1,1-.42l4.23,2.44a1.17,1.17,0,0,1,.5,1.29h0A.67.67,0,0,1,185.92,105.35Z"/><path class="cls-22" d="M210.65,115.45l-2.72-1.57a1.18,1.18,0,0,1-.49-1.29h0a.66.66,0,0,1,1-.42l2.72,1.57a1.17,1.17,0,0,1,.5,1.29h0A.67.67,0,0,1,210.65,115.45Z"/><path class="cls-9" d="M200.25,92.64l-7.48-4.32a1.17,1.17,0,0,1-.5-1.29h0a.67.67,0,0,1,1-.42l7.48,4.32a1.18,1.18,0,0,1,.5,1.29h0A.67.67,0,0,1,200.25,92.64Z"/><path class="cls-23" d="M201.13,89l-13-7.53a1.17,1.17,0,0,1-.5-1.29h0a.67.67,0,0,1,1-.42l13,7.53a1.16,1.16,0,0,1,.5,1.29h0A.67.67,0,0,1,201.13,89Z"/><path class="cls-22" d="M193.44,92.91,186,88.59a1.18,1.18,0,0,1-.49-1.29h0a.66.66,0,0,1,1-.42L194,91.2a1.17,1.17,0,0,1,.5,1.29h0A.67.67,0,0,1,193.44,92.91Z"/><path class="cls-24" d="M205.92,95.92l-2.72-1.57a1.16,1.16,0,0,1-.49-1.29h0a.66.66,0,0,1,1-.42l2.72,1.57a1.16,1.16,0,0,1,.5,1.29h0A.67.67,0,0,1,205.92,95.92Z"/><path class="cls-22" d="M233.56,95.09,217.47,85.8a1.17,1.17,0,0,1-.5-1.29h0a.67.67,0,0,1,1-.42l16.09,9.29a1.17,1.17,0,0,1,.5,1.29h0A.67.67,0,0,1,233.56,95.09Z"/><path class="cls-25" d="M192.82,100.94l-9-5.19a1.17,1.17,0,0,1-.5-1.29h0a.67.67,0,0,1,1-.42l9,5.19a1.18,1.18,0,0,1,.5,1.29h0A.67.67,0,0,1,192.82,100.94Z"/><path class="cls-25" d="M194.17,72.35l-6.61-3.82a1.17,1.17,0,0,1-.49-1.29h0a.65.65,0,0,1,1-.41l6.61,3.81a1.17,1.17,0,0,1,.5,1.29h0A.67.67,0,0,1,194.17,72.35Z"/><path class="cls-26" d="M184.54,108.75l-7.65-4.42a1.17,1.17,0,0,1-.5-1.29h0a.67.67,0,0,1,1-.42l7.65,4.42a1.17,1.17,0,0,1,.5,1.29h0A.67.67,0,0,1,184.54,108.75Z"/><path class="cls-9" d="M235.37,86.81l-3.28-1.89a.85.85,0,0,1-.36-.94h0a.49.49,0,0,1,.73-.31l3.28,1.9a.84.84,0,0,1,.37.94h0A.49.49,0,0,1,235.37,86.81Z"/><path class="cls-9" d="M241.62,90.42l-3.28-1.89a.84.84,0,0,1-.36-.94h0a.48.48,0,0,1,.73-.31L242,89.17a.86.86,0,0,1,.36,1h0A.48.48,0,0,1,241.62,90.42Z"/><path class="cls-9" d="M247.87,94l-3.28-1.89a.85.85,0,0,1-.36-.94h0a.48.48,0,0,1,.73-.31l3.28,1.89a.85.85,0,0,1,.36.94h0A.48.48,0,0,1,247.87,94Z"/><path class="cls-25" d="M250.94,95.81l-.1-.06a.85.85,0,0,1-.36-.94h0a.48.48,0,0,1,.73-.31l.1.06a.85.85,0,0,1,.37.94h0A.5.5,0,0,1,250.94,95.81Z"/><path class="cls-27" d="M81.83,134.15a12,12,0,0,1-6-1.6h0l-22-12.67a3,3,0,0,1,0-5.27l22-12.67a12,12,0,0,1,12,0l22,12.67a3,3,0,0,1,0,5.27l-22,12.67A12,12,0,0,1,81.83,134.15Zm-5.28-2.84a10.61,10.61,0,0,0,10.57,0l21.94-12.67a1.61,1.61,0,0,0,0-2.79L87.12,103.18a10.61,10.61,0,0,0-10.57,0L54.6,115.85a1.62,1.62,0,0,0,0,2.79Z"/><ellipse class="cls-4" cx="81.72" cy="117.54" rx="15.08" ry="8.7"/><path class="cls-28" d="M104.07,55.51H61.13l4,46.49h0c0,2.58,1.71,5.16,5.12,7.13,6.83,3.94,17.89,3.94,24.72,0,3.41-2,5.12-4.55,5.12-7.13Z"/><path class="cls-15" d="M104.07,55.51H61.13l.66,7.65a16.53,16.53,0,0,0,4,3.58c8.2,5.44,21.74,6.49,31,2.57l-1.43,34a6.68,6.68,0,0,1-1.53,4.06c-1.4,1.63-4.08,3.56-9.23,4.65A24.17,24.17,0,0,0,95,109.13c3.41-2,5.12-4.55,5.12-7.13l3.2-37.29h0Z"/><ellipse class="cls-15" cx="82.6" cy="55.51" rx="21.47" ry="12.4"/><ellipse class="cls-15" cx="82.6" cy="51.14" rx="18.49" ry="10.68"/><path class="cls-29" d="M105.34,54.92h0v0a.13.13,0,0,0,0-.06l-.41-4.17,0,.05c-.18-3.15-2.35-6.27-6.52-8.68-8.71-5-22.85-5-31.56,0-4.28,2.47-6.45,5.69-6.53,8.92h0l-.39,3.7c0,.1,0,.2,0,.29V55h0c-.24,3.53,2,7.11,6.64,9.8,8.89,5.14,23.31,5.14,32.2,0C103.4,62.08,105.61,58.48,105.34,54.92Z"/><ellipse class="cls-30" cx="82.6" cy="51.14" rx="18.49" ry="10.68"/><ellipse class="cls-31" cx="81.72" cy="51.14" rx="18.49" ry="10.68"/><path class="cls-15" d="M71.72,45.18c7.22-4.17,18.93-4.17,26.15,0l.26.17a14.26,14.26,0,0,0-2.45-1.76c-7.23-4.17-18.94-4.17-26.16,0s-7.2,10.75-.26,14.93C64.63,54.39,65.44,48.8,71.72,45.18Z"/><path class="cls-32" d="M69.52,45.44c7.22-4.17,18.93-4.17,26.16,0,3.2,1.85,5,4.21,5.34,6.63.45-3-1.32-6.16-5.34-8.48-7.23-4.17-18.94-4.17-26.16,0-4,2.32-5.8,5.44-5.34,8.48C64.54,49.65,66.32,47.29,69.52,45.44Z"/><path class="cls-33" d="M98.52,42.13c-8.7-5.13-22.89-5.25-31.68-.28S58,55,66.68,60.15s22.89,5.25,31.68.27S107.23,47.26,98.52,42.13ZM95.68,58.69a24.17,24.17,0,0,1-8.41,2.77l-.34-1.1a1,1,0,0,0-1-.75H79.28a1,1,0,0,0-1,.75l-.34,1.1a24.17,24.17,0,0,1-8.41-2.77c-7.22-4.17-7.22-10.93,0-15.1s18.93-4.17,26.16,0S102.9,54.52,95.68,58.69Z"/><path class="cls-9" d="M95.68,42.8c-7.23-4.17-18.94-4.17-26.16,0-3.78,2.18-5.58,5.08-5.4,7.94.17-2.6,2-5.17,5.4-7.15,7.22-4.17,18.93-4.17,26.16,0,3.43,2,5.23,4.55,5.4,7.15C101.26,47.88,99.46,45,95.68,42.8Z"/><path class="cls-9" d="M98.36,59.63c-8.79,5-23,4.85-31.68-.28-4.14-2.44-6.3-5.57-6.47-8.72-.17,3.41,2,6.87,6.47,9.52,8.7,5.12,22.89,5.25,31.68.27,4.61-2.6,6.82-6.09,6.63-9.56C104.83,54.06,102.62,57.22,98.36,59.63Z"/><rect class="cls-16" x="80.11" y="60.96" width="4.97" height="1.07" rx="0.43"/><path class="cls-34" d="M84.58,61h-4a.51.51,0,0,0-.5.5v.07a.7.7,0,0,0,0,.14.5.5,0,0,1,.47-.37h4a.5.5,0,0,1,.48.37.7.7,0,0,0,0-.14v-.07A.51.51,0,0,0,84.58,61Z"/><path class="cls-35" d="M84,61.5s12-4,7.14-17.82-14.32-18-10.51-29c0,0-6,8.93-.39,21s6.8,10.7,6.74,16.48a10.44,10.44,0,0,1-5.63,9.35Z"/><path class="cls-36" d="M85.09,16.57S83.84,8.32,91.58,0c0,0-6.85,15.29-4.61,22.84C87,22.84,85.16,18,85.09,16.57Z"/><path class="cls-9" d="M83.05,80.14v2.34a.51.51,0,0,1-.5.5H78.86a.2.2,0,0,0-.2.2l0,3.8a.51.51,0,0,1-.51.5H75.49A.5.5,0,0,1,75,87V80.14a.5.5,0,0,1,.5-.5h7.06A.5.5,0,0,1,83.05,80.14Z"/><path class="cls-9" d="M88.81,87.67a6,6,0,0,1-6,6c-.72,0-2.86,0-3.84,0a.5.5,0,0,1-.5-.5V90.62a.5.5,0,0,1,.5-.5h3.46a2.76,2.76,0,0,0,2.84-2.84V83.83a.51.51,0,0,1,.5-.51h2.55a.51.51,0,0,1,.5.51Z"/><path class="cls-9" d="M235.38,104.63l-1.22,2a.5.5,0,0,1-.69.17l-3.16-1.91a.2.2,0,0,0-.27.06l-2,3.24a.5.5,0,0,1-.69.17L225.1,107a.5.5,0,0,1-.17-.69l3.57-5.85a.51.51,0,0,1,.69-.17l6,3.67A.51.51,0,0,1,235.38,104.63Z"/><path class="cls-9" d="M236.38,114.06a6,6,0,0,1-8.25,2c-.63-.36-2.46-1.48-3.29-2a.51.51,0,0,1-.16-.69L226,111.2a.5.5,0,0,1,.69-.17l2.94,1.8a2.77,2.77,0,0,0,3.91-1l1.8-2.95a.5.5,0,0,1,.69-.16l2.17,1.32a.5.5,0,0,1,.17.69Z"/></g></g></svg>