<svg xmlns="http://www.w3.org/2000/svg" viewBox="0 0 377.78 384"><defs><style>.cls-1{fill:#FFF;}</style></defs><title>Recurso 6</title><g id="Capa_2" data-name="Capa 2"><g id="Capa_1-2" data-name="Capa 1"><path class="cls-1" d="M220.28,13.71v64a13.72,13.72,0,0,1-13.67,13.71l-101,.32a5.5,5.5,0,0,0-5.47,5.46l-.58,104A13.71,13.71,0,0,1,85.9,214.78l-72.19,0A13.71,13.71,0,0,1,0,201V13.71A13.71,13.71,0,0,1,13.71,0H206.56A13.71,13.71,0,0,1,220.28,13.71Z"/><path class="cls-1" d="M377.78,219.53c-2.43,79.31-57.29,161.6-164.18,164.19-19.91.48-78.39.22-105.12.07a13.68,13.68,0,0,1-13.6-13.71V300.32a13.71,13.71,0,0,1,13.71-13.71H203c46.22,1.26,79.13-37.13,77.71-77.71l.14-94.39a13.72,13.72,0,0,1,13.71-13.7h69.55a13.71,13.71,0,0,1,13.71,13.72Z"/></g></g></svg>