<svg xmlns="http://www.w3.org/2000/svg" viewBox="0 0 197.33 40"><defs><style>.cls-1{fill:#FFF;}</style></defs><title>Recurso 5</title><g id="Capa_2" data-name="Capa 2"><g id="Capa_1-2" data-name="Capa 1"><path class="cls-1" d="M68.72,5.54H59.15a1,1,0,0,0-1,1V33.46a1,1,0,0,0,1,1h9.57c9.93,0,16.92-6,16.92-14.48S78.65,5.54,68.72,5.54Zm1.09,22.39H66.35a1,1,0,0,1-1-1V13.06a1,1,0,0,1,1-1h3.46c4.93,0,8.46,3.29,8.46,7.92S74.74,27.93,69.81,27.93Z"/><rect class="cls-1" x="91.41" y="5.54" width="7.2" height="28.92" rx="1"/><path class="cls-1" d="M113.21,13v2.5a1,1,0,0,0,1,1h12.15a1,1,0,0,1,1,1v4.45a1,1,0,0,1-1,1H114.21a1,1,0,0,0-1,1V27a1,1,0,0,0,1,1h13.58a1,1,0,0,1,1,1v4.44a1,1,0,0,1-1,1H107a1,1,0,0,1-1-1V6.54a1,1,0,0,1,1-1h20.77a1,1,0,0,1,1,1V11a1,1,0,0,1-1,1H114.21A1,1,0,0,0,113.21,13Z"/><path class="cls-1" d="M149.07,17.87h11.18a1,1,0,0,1,1,1V29.55a1,1,0,0,1-.28.7A16.43,16.43,0,0,1,149.42,35c-8.55,0-15.7-6.87-15.7-15S140.87,5,149.42,5a16.67,16.67,0,0,1,11,4.18,1,1,0,0,1,0,1.5L156.72,14a1,1,0,0,1-1.35,0,8.66,8.66,0,0,0-6-2.44,8.44,8.44,0,0,0,0,16.88,8.73,8.73,0,0,0,4.34-1.2,1,1,0,0,0,.5-.87V24.3a1,1,0,0,0-1-1h-4.19a1,1,0,0,1-1-1V18.87A1,1,0,0,1,149.07,17.87Z"/><path class="cls-1" d="M181.75,5c-8.41,0-15.53,6.82-15.53,15s7.12,15,15.53,15,15.58-6.86,15.58-15S190.22,5,181.75,5Zm0,23.41A8.44,8.44,0,1,1,189.92,20,8.42,8.42,0,0,1,181.75,28.44Z"/><path class="cls-1" d="M23,1.43V8.09a1.43,1.43,0,0,1-1.43,1.43L11,9.55a.57.57,0,0,0-.57.57L10.38,21A1.43,1.43,0,0,1,9,22.37H1.43A1.43,1.43,0,0,1,0,20.94V1.43A1.43,1.43,0,0,1,1.43,0H21.52A1.43,1.43,0,0,1,23,1.43Z"/><path class="cls-1" d="M39.35,22.87c-.25,8.26-6,16.83-17.1,17.1-2.07.05-8.17,0-10.95,0a1.43,1.43,0,0,1-1.42-1.43V31.28a1.43,1.43,0,0,1,1.43-1.43h9.83a7.86,7.86,0,0,0,8.1-8.09V11.93a1.43,1.43,0,0,1,1.43-1.43h7.24a1.43,1.43,0,0,1,1.43,1.43Z"/></g></g></svg>